<svg xmlns="http://www.w3.org/2000/svg" viewBox="0 0 84.61 30.72"><defs><style>.cls-1{fill:#fff;}</style></defs><title>CoDeAr_Brand_Abridged_White</title><g id="Layer_2" data-name="Layer 2"><g id="Layer_1-2" data-name="Layer 1"><polygon class="cls-1" points="9.12 30.72 23.15 18.3 19.42 0 10.63 7.78 16.54 18.03 9.12 30.72"/><polygon class="cls-1" points="8.74 7.78 7.33 5.33 0 18.03 7.26 30.6 7.33 30.72 7.42 30.55 14.65 18.03 8.74 7.78"/><path class="cls-1" d="M37.82,18a4.75,4.75,0,0,1-1.23,3.31A4.32,4.32,0,0,1,33.4,22.4,4,4,0,0,1,30.08,21a6.29,6.29,0,0,1-1.15-4.06V14.76a6.13,6.13,0,0,1,1.19-4.06,4.08,4.08,0,0,1,3.32-1.42,4.12,4.12,0,0,1,3.17,1.16,5.34,5.34,0,0,1,1.23,3.35H35.25a3.34,3.34,0,0,0-.42-1.86,1.63,1.63,0,0,0-1.39-.51,1.58,1.58,0,0,0-1.47.72,5,5,0,0,0-.46,2.38v2.41a5.65,5.65,0,0,0,.43,2.62,1.57,1.57,0,0,0,1.46.71,1.67,1.67,0,0,0,1.4-.5A3.19,3.19,0,0,0,35.24,18Z"/><path class="cls-1" d="M47.16,17.32A6.41,6.41,0,0,1,46.65,20a4,4,0,0,1-1.44,1.78,4,4,0,0,1-4.27,0A4,4,0,0,1,39.48,20,6.38,6.38,0,0,1,39,17.32v-.4a6.38,6.38,0,0,1,.52-2.66,3.94,3.94,0,0,1,1.45-1.77,3.74,3.74,0,0,1,2.14-.63,3.67,3.67,0,0,1,2.88,1.28,5.45,5.45,0,0,1,1.22,3.41Zm-2.48-.41a4.78,4.78,0,0,0-.42-2.23,1.34,1.34,0,0,0-1.2-.77,1.31,1.31,0,0,0-1.21.77,4.79,4.79,0,0,0-.41,2.23v.4a4.62,4.62,0,0,0,.43,2.23,1.33,1.33,0,0,0,1.21.78,1.31,1.31,0,0,0,1.17-.78,4.7,4.7,0,0,0,.43-2.19Z"/><path class="cls-1" d="M48.78,22.22V9.45h3.38a4.62,4.62,0,0,1,3.56,1.42,5.58,5.58,0,0,1,1.36,3.9v2.07a5.62,5.62,0,0,1-1.33,3.95,4.74,4.74,0,0,1-3.66,1.43ZM51.36,11.6v8.48h.77A2.16,2.16,0,0,0,54,19.4a4,4,0,0,0,.55-2.34V14.84a4.57,4.57,0,0,0-.5-2.5,2,2,0,0,0-1.7-.74Z"/><path class="cls-1" d="M64.52,18H61.19v2.2h4v2H58.71V12h6.45v2.07h-4v1.85h3.33Z"/><path class="cls-1" d="M72.62,19.61H69.1l-.68,2.61H65.69l4-12.77H72l4,12.77H73.31Zm-3-2.15h2.38l-1.19-4.55Z"/><path class="cls-1" d="M80.41,18.71h-.88v3.51H77V12h3.71a3.93,3.93,0,0,1,2.62.8,2.8,2.8,0,0,1,.94,2.27,3.89,3.89,0,0,1-.36,1.78A2.78,2.78,0,0,1,82.75,18l1.86,4.11v.1H81.94Zm-.88-2.07h1.16c.75,0,1.13-.43,1.13-1.29s-.36-1.27-1.07-1.28H79.53Z"/></g></g></svg>